<?xml version="1.0" encoding="utf-8"?>
<!-- Generator: Adobe Illustrator 25.4.8, SVG Export Plug-In . SVG Version: 6.00 Build 0)  -->
<svg version="1.1" id="Layer_1" xmlns="http://www.w3.org/2000/svg" xmlns:xlink="http://www.w3.org/1999/xlink" x="0px" y="0px"
	 viewBox="0 0 1500 1500" style="enable-background:new 0 0 1500 1500;" xml:space="preserve">
<style type="text/css">
	.st0{fill:#007E9D;}
	.st1{fill:#004D7C;}
	.st2{fill:#006588;}
	.st3{fill:#00B2CA;}
	.st4{fill:#008BAA;}
	.st5{fill:#007DA4;}
	.st6{fill:#00B0CA;}
	.st7{fill:#0085A4;}
	.st8{fill:#008FAB;}
	.st9{fill:#07CCDB;}
	.st10{fill:#006488;}
	.st11{fill:#007EA1;}
	.st12{fill:#0092AE;}
	.st13{fill:#00B2CC;}
	.st14{fill:#00B1C6;}
	.st15{fill:#006487;}
</style>
<g>
	<polygon class="st0" points="1107.8,526.68 1163.8,646.67 981.14,646.67 	"/>
	<polygon class="st1" points="1122.47,842.66 1163.8,646.67 981.14,646.67 	"/>
	<polygon class="st2" points="1014.48,518.68 981.14,646.67 1107.8,526.68 	"/>
	<polygon class="st3" points="793.15,602.67 1014.48,518.68 981.14,646.67 	"/>
	<polygon class="st4" points="1122.47,842.66 838.48,842.66 981.14,646.67 	"/>
	<polygon class="st5" points="793.15,602.67 838.48,842.66 981.14,646.67 	"/>
	<polygon class="st3" points="642.49,757.33 793.15,602.67 838.48,842.66 	"/>
	<polygon class="st6" points="962.48,981.32 1122.47,842.66 838.48,842.66 	"/>
	<polygon class="st1" points="980.48,1077.32 962.48,981.32 1122.47,842.66 	"/>
	<polygon class="st4" points="859.82,1069.32 962.48,981.32 980.48,1077.32 	"/>
	<polygon class="st0" points="878.48,1129.32 859.82,1069.32 980.48,1077.32 	"/>
	<polygon class="st7" points="838.48,842.66 793.15,918.37 962.48,981.32 	"/>
	<polygon class="st6" points="727.82,1046.65 793.15,918.37 962.48,981.32 	"/>
	<polygon class="st6" points="483.83,1115.98 727.82,1046.65 649.16,935.99 	"/>
	<polygon class="st8" points="642.49,757.33 649.16,935.99 793.15,918.37 	"/>
	<polygon class="st5" points="727.82,1046.65 793.15,918.37 649.16,935.99 	"/>
	<polygon class="st9" points="838.48,842.66 793.15,918.37 642.49,757.33 	"/>
	<polygon class="st1" points="591.83,1129.32 727.82,1046.65 483.83,1115.98 	"/>
	<polygon class="st10" points="473.17,846.66 575.8,1015.86 649.16,935.99 	"/>
	<polygon class="st11" points="566.49,780 649.16,935.99 642.49,757.33 	"/>
	<polygon class="st12" points="522.5,789.33 473.17,846.66 649.16,935.99 	"/>
	<polygon class="st2" points="566.49,780 522.5,789.33 649.16,935.99 	"/>
	<polygon class="st6" points="551.83,646.67 566.49,780 493.16,682.67 	"/>
	<polygon class="st6" points="537.16,545.34 551.83,646.67 642.49,621.34 	"/>
	<polygon class="st3" points="642.49,501.34 642.49,621.34 762.49,526.68 	"/>
	<polygon class="st3" points="473.17,452.01 537.16,545.34 505.16,602.67 	"/>
	<polygon class="st4" points="551.83,646.67 505.16,602.67 537.16,545.34 	"/>
	<polygon class="st2" points="642.49,501.34 537.16,545.34 642.49,621.34 	"/>
	<polygon class="st11" points="455.83,701.34 473.17,846.66 522.5,789.33 	"/>
	<polygon class="st2" points="493.16,682.67 522.5,789.33 566.49,780 	"/>
	<polygon class="st13" points="455.83,612.01 493.16,682.67 455.83,701.34 	"/>
	<polygon class="st0" points="473.17,452.01 455.83,612.01 505.16,602.67 	"/>
	<polygon class="st4" points="493.16,682.67 505.16,602.67 455.83,612.01 	"/>
	<polygon class="st0" points="551.83,646.67 505.16,602.67 493.16,682.67 	"/>
	<polygon class="st0" points="522.5,789.33 493.16,682.67 455.83,701.34 	"/>
	<polygon class="st14" points="473.17,452.01 367.84,518.68 455.83,612.01 	"/>
	<polygon class="st15" points="345.17,370.68 367.84,518.68 473.17,452.01 	"/>
</g>
</svg>
