<svg xmlns="http://www.w3.org/2000/svg" version="1.1" xmlns:xlink="http://www.w3.org/1999/xlink" xmlns:svgjs="http://svgjs.com/svgjs" width="418.56" height="386.19"><svg id="SvgjsSvg1001" xmlns="http://www.w3.org/2000/svg" viewBox="0 0 418.56 386.19"><defs><style>.cls-1{fill:#ffb000;}.cls-2{fill:#ffdf71;}.cls-3{fill:#ffc900;}.cls-4{fill:#ffd600;}.cls-5{fill:#ff9b00;}.cls-6{fill:#ffbf00;}.cls-7{fill:#ffd41e;}.cls-8{fill:#ffa700;}.cls-9{fill:#ffc200;}.cls-10{fill:#ff8900;}.cls-11{fill:#ff6400;}</style></defs><g id="SvgjsG1000"><polygon class="cls-11" points="0 0 11.08 76.23 66.51 42.12 0 0"></polygon><polygon class="cls-5" points="55.42 124.15 11.08 76.23 66.51 42.12 55.42 124.15"></polygon><polygon class="cls-11" points="83.36 124.15 55.42 124.15 66.51 42.12 83.36 124.15"></polygon><polygon class="cls-10" points="83.36 124.15 96.66 89.56 66.51 42.12 83.36 124.15"></polygon><polygon class="cls-10" points="152.08 67.39 152.08 129.47 213.71 81.14 152.08 67.39"></polygon><polygon class="cls-11" points="96.66 89.56 152.08 67.39 152.08 129.47 96.66 89.56"></polygon><polygon class="cls-5" points="105.97 141.66 152.08 129.47 96.66 89.56 105.97 141.66"></polygon><polygon class="cls-6" points="83.36 124.15 96.66 89.56 105.97 141.66 83.36 124.15"></polygon><polygon class="cls-4" points="75.82 159.18 105.97 141.66 83.36 124.15 75.82 159.18"></polygon><polygon class="cls-3" points="55.42 124.15 83.36 124.15 75.82 159.18 55.42 124.15"></polygon><polygon class="cls-1" points="57.2 168.04 55.42 124.15 75.82 159.18 57.2 168.04"></polygon><polygon class="cls-1" points="57.2 168.04 75.82 159.18 91.34 212.23 57.2 168.04"></polygon><polygon class="cls-5" points="66.06 245.19 91.34 212.23 57.2 168.04 66.06 245.19"></polygon><polygon class="cls-11" points="112.2 209.45 105.97 141.66 75.82 159.18 112.2 209.45"></polygon><polygon class="cls-10" points="112.2 209.45 91.34 212.23 75.82 159.18 112.2 209.45"></polygon><polygon class="cls-11" points="126.37 386.19 68.73 379.54 194.65 344.96 126.37 386.19"></polygon><polygon class="cls-10" points="68.73 379.54 155.63 287.76 194.65 344.96 68.73 379.54"></polygon><polygon class="cls-11" points="117.49 328.03 66.06 245.19 155.63 287.76 117.49 328.03"></polygon><polygon class="cls-10" points="66.06 245.19 91.34 212.23 155.63 287.76 66.06 245.19"></polygon><polygon class="cls-8" points="112.2 209.45 91.34 212.23 155.63 287.76 112.2 209.45"></polygon><polygon class="cls-5" points="152.08 198.19 112.2 209.45 155.63 287.76 152.08 198.19"></polygon><polygon class="cls-1" points="227.74 279.78 152.08 198.19 155.63 287.76 227.74 279.78"></polygon><polygon class="cls-5" points="227.74 279.78 155.63 287.76 194.65 344.96 227.74 279.78"></polygon><polygon class="cls-3" points="194.65 344.96 314.81 312.37 227.74 279.78 194.65 344.96"></polygon><polygon class="cls-1" points="271.27 386.19 260.71 356.04 323.01 359.59 271.27 386.19"></polygon><polygon class="cls-5" points="323.01 359.59 314.81 312.37 260.71 356.04 323.01 359.59"></polygon><polygon class="cls-10" points="395.95 241.23 323.01 359.59 314.81 312.37 395.95 241.23"></polygon><polygon class="cls-7" points="250.07 238.54 314.81 312.37 227.74 279.78 250.07 238.54"></polygon><polygon class="cls-9" points="250.07 238.54 152.08 198.19 227.74 279.78 250.07 238.54"></polygon><polygon class="cls-4" points="250.07 238.54 152.08 198.19 227.74 119.23 250.07 238.54"></polygon><polygon class="cls-1" points="250.07 238.54 314.81 312.37 395.95 241.23 250.07 238.54"></polygon><polygon class="cls-5" points="250.07 238.54 320.74 143.23 395.95 241.23 250.07 238.54"></polygon><polygon class="cls-1" points="250.07 238.54 227.74 119.23 320.74 143.23 250.07 238.54"></polygon><polygon class="cls-2" points="227.74 119.23 341.74 76.23 320.74 143.23 227.74 119.23"></polygon><polygon class="cls-10" points="395.95 241.23 418.56 141.66 320.74 143.23 395.95 241.23"></polygon><polygon class="cls-3" points="418.56 141.66 387.52 79.81 320.74 143.23 418.56 141.66"></polygon><polygon class="cls-10" points="387.52 79.81 341.74 76.23 320.74 143.23 387.52 79.81"></polygon></g></svg><style>@media (prefers-color-scheme: light) { :root { filter: none; } }
</style></svg>