<?xml version="1.0" encoding="utf-8"?>
<!-- Generator: Adobe Illustrator 25.4.6, SVG Export Plug-In . SVG Version: 6.00 Build 0)  -->
<svg version="1.1" id="Layer_1" xmlns="http://www.w3.org/2000/svg" xmlns:xlink="http://www.w3.org/1999/xlink" x="0px" y="0px"
	 viewBox="0 0 832.05 768" style="enable-background:new 0 0 832.05 768;" xml:space="preserve">
<style type="text/css">
	.st0{fill:#FFC000;}
</style>
<g>
	<path class="st0" d="M530.64,505.03c-3.54,0-6.53,1.09-8.95,3.26c-2.42,2.18-3.76,5.38-4.01,9.6h25.09
		c0.18-4.23-0.92-7.43-3.31-9.6C537.06,506.12,534.12,505.03,530.64,505.03z"/>
	<path class="st0" d="M595.45,203.02h-382v382h110.36v-89.68h13.15v10.73c1.31-3.48,3.5-6.25,6.57-8.3
		c3.08-2.05,6.79-3.08,11.14-3.08c4.35,0,8.27,1.06,11.75,3.17c3.48,2.11,6.2,5.18,8.16,9.19c1.96,4.01,2.94,8.72,2.94,14.13
		c0,5.41-0.98,10.11-2.94,14.13c-1.96,4.01-4.68,7.07-8.16,9.19c-3.48,2.11-7.4,3.17-11.75,3.17c-4.35,0-8.06-1.04-11.14-3.13
		c-3.08-2.08-5.27-4.86-6.57-8.34v48.84h258.49V438.47l-40.34-44.46l40.34-44.28V203.02z M308.84,543.54
		c-3.45,2.74-8.1,4.1-13.94,4.1c-6.71,0-12.09-1.51-16.13-4.52c-4.04-3.02-6.5-7.32-7.37-12.92h12.59c0.31,2.55,1.43,4.56,3.36,6.02
		c1.92,1.46,4.44,2.19,7.55,2.19c2.24,0,3.95-0.54,5.13-1.63c1.18-1.09,1.77-2.5,1.77-4.24c0-1.49-0.51-2.7-1.54-3.64
		c-1.03-0.93-2.3-1.64-3.82-2.14c-1.52-0.5-3.68-1.09-6.48-1.77c-3.85-0.87-6.98-1.76-9.37-2.66c-2.39-0.9-4.44-2.34-6.15-4.34
		c-1.71-1.99-2.56-4.72-2.56-8.21c0-4.47,1.71-8.11,5.13-10.91c3.42-2.8,8.14-4.2,14.17-4.2c6.28,0,11.32,1.59,15.11,4.76
		c3.79,3.17,6.16,7.4,7.09,12.68h-12.31c-0.5-2.49-1.62-4.48-3.36-5.97c-1.74-1.49-4.01-2.24-6.81-2.24c-2.24,0-3.98,0.53-5.22,1.59
		c-1.25,1.06-1.87,2.49-1.87,4.29c0,1.43,0.5,2.58,1.49,3.45c0.99,0.87,2.24,1.56,3.73,2.05c1.49,0.5,3.64,1.09,6.43,1.77
		c3.92,0.87,7.1,1.79,9.56,2.75c2.45,0.96,4.57,2.49,6.34,4.57c1.77,2.08,2.66,4.9,2.66,8.44
		C314.02,537.24,312.29,540.81,308.84,543.54z M437.95,547h-13.06v-10.82c-1.3,3.48-3.51,6.26-6.62,8.34
		c-3.11,2.08-6.84,3.13-11.19,3.13c-4.35,0-8.27-1.06-11.75-3.17c-3.48-2.11-6.2-5.18-8.16-9.19c-1.96-4.01-2.94-8.72-2.94-14.13
		c0-5.41,0.98-10.12,2.94-14.13c1.96-4.01,4.68-7.07,8.16-9.19c3.48-2.11,7.4-3.17,11.75-3.17c4.35,0,8.08,1.03,11.19,3.08
		c3.11,2.05,5.32,4.82,6.62,8.3v-10.73h13.06V547z M464.11,532.5c2.33,2.58,5.24,3.87,8.72,3.87c3.05,0,5.56-0.79,7.55-2.38
		c1.99-1.58,3.26-3.74,3.82-6.48h13.9c-1.12,6.22-3.9,11.13-8.34,14.73c-4.45,3.61-10,5.41-16.65,5.41c-5.03,0-9.51-1.07-13.43-3.22
		c-3.92-2.14-6.96-5.21-9.14-9.18c-2.18-3.98-3.26-8.67-3.26-14.08c0-5.41,1.09-10.12,3.26-14.13c2.18-4.01,5.22-7.07,9.14-9.19
		c3.92-2.11,8.39-3.17,13.43-3.17c6.65,0,12.2,1.8,16.65,5.41c4.44,3.61,7.23,8.52,8.34,14.73h-13.9c-0.56-2.73-1.83-4.89-3.82-6.48
		c-1.99-1.59-4.51-2.38-7.55-2.38c-3.48,0-6.39,1.29-8.72,3.87c-2.33,2.58-3.5,6.36-3.5,11.33
		C460.61,526.14,461.77,529.91,464.11,532.5z M556,519.21c0,1.31-0.15,2.8-0.47,4.47h-37.86c0.19,4.6,1.43,7.99,3.73,10.16
		c2.3,2.18,5.16,3.26,8.58,3.26c3.05,0,5.58-0.74,7.6-2.24c2.02-1.49,3.31-3.51,3.87-6.06h13.89c-0.68,3.61-2.14,6.84-4.38,9.7
		c-2.24,2.86-5.11,5.1-8.63,6.72c-3.51,1.62-7.42,2.42-11.71,2.42c-5.03,0-9.51-1.07-13.43-3.22c-3.92-2.14-6.96-5.21-9.14-9.18
		c-2.18-3.98-3.26-8.67-3.26-14.08c0-5.41,1.09-10.12,3.26-14.13c2.18-4.01,5.22-7.07,9.14-9.19c3.92-2.11,8.39-3.17,13.43-3.17
		c5.1,0,9.56,1.06,13.38,3.17c3.82,2.11,6.78,5.02,8.86,8.72C554.96,510.27,556,514.48,556,519.21z"/>
	<path class="st0" d="M350.57,536.08c4.1,0,7.4-1.32,9.89-3.96c2.49-2.64,3.73-6.29,3.73-10.96c0-4.66-1.24-8.33-3.73-11
		s-5.78-4.01-9.89-4.01c-3.98,0-7.26,1.35-9.84,4.06c-2.58,2.7-3.87,6.36-3.87,10.96c0,4.54,1.29,8.16,3.87,10.86
		C343.31,534.73,346.59,536.08,350.57,536.08z"/>
</g>
</svg>
